<svg xmlns="http://www.w3.org/2000/svg" viewBox="0 0 586 559">
  <path d="M461.48 298.35l-17.78-54.63a7.72 7.72 0 0 0-.43-1.47l-35.67-109.8a14.18 14.18 0 0 0-13.54-9.67 13.94 13.94 0 0 0-13.38 9.75l-34 104.63H239.37l-34-104.63a13.94 13.94 0 0 0-13.32-9.75h-.08a14.22 14.22 0 0 0-13.5 9.67l-35.7 109.93c0 .1-.08.18-.11.28l-17.6 54.4a19.29 19.29 0 0 0 7 21.45l156.39 113.63a8 8 0 0 0 9.45-.05l156.41-113.58a19.32 19.32 0 0 0 7.17-21.46z" fill="#fc6d26"/>
  <path d="M293 434.91l53.46-164.65H239.4z" fill="#e24329"/>
  <path d="M293 434.91l-53.46-164.65h-109z" fill="#fc6d26"/>
  <path d="M130.42 270.26l-17.61 54.39a19.29 19.29 0 0 0 7 21.45l156.39 113.63a8 8 0 0 0 9.45-.05l156.41-113.58a19.32 19.32 0 0 0 7.17-21.46l-17.82-54.67z" fill="#fca326"/>
  <path d="M130.42 270.26h109.08l-34.12-104.63a13.94 13.94 0 0 0-13.32-9.75h-.08a14.22 14.22 0 0 0-13.5 9.67z" fill="#e24329"/>
  <path d="M293 434.91l53.45-164.65h109.11z" fill="#fc6d26"/>
  <path d="M455.61 270.26h-109.1l34-104.63a13.94 13.94 0 0 1 13.38-9.75 14.18 14.18 0 0 1 13.54 9.67z" fill="#e24329"/>
</svg>